<svg width="12" height="12" viewBox="0 0 12 12" fill="none" xmlns="http://www.w3.org/2000/svg">
<path d="M9.75048 4.87429C9.75048 5.94991 9.40124 6.94351 8.81293 7.74965L11.7803 10.7187C12.0732 11.0117 12.0732 11.4874 11.7803 11.7803C11.4873 12.0732 11.0115 12.0732 10.7185 11.7803L7.75116 8.81121C6.94487 9.40175 5.95107 9.74857 4.87524 9.74857C2.18214 9.74857 0 7.56686 0 4.87429C0 2.18171 2.18214 0 4.87524 0C7.56834 0 9.75048 2.18171 9.75048 4.87429ZM4.87524 8.24879C6.73861 8.24879 8.2504 6.73729 8.2504 4.87429C8.2504 3.01128 6.73861 1.49978 4.87524 1.49978C3.01187 1.49978 1.50007 3.01128 1.50007 4.87429C1.50007 6.73729 3.01187 8.24879 4.87524 8.24879Z" fill="#1C1C1C"/>
</svg>
