<svg width="36" height="44" viewBox="0 0 36 44" fill="none" xmlns="http://www.w3.org/2000/svg">
<path d="M30.0988 23.2516C30.0797 19.6464 31.6674 16.9254 34.881 14.9215C33.0829 12.279 30.3666 10.8252 26.78 10.5403C23.3847 10.2653 19.6738 12.5737 18.3156 12.5737C16.881 12.5737 13.5909 10.6385 11.0085 10.6385C5.67163 10.727 0 15.0099 0 23.7231C0 26.2967 0.459086 28.9556 1.37726 31.6995C2.60149 35.3046 7.02019 44.1455 11.6302 43.9982C14.0404 43.9392 15.7428 42.2398 18.8799 42.2398C21.9214 42.2398 23.4995 43.9982 26.187 43.9982C30.8353 43.9294 34.8332 35.894 36 32.2791C29.7641 29.2634 30.0988 23.4382 30.0988 23.2516ZM24.6854 7.12183C27.2965 3.93911 27.0574 1.04126 26.9809 0C24.6759 0.137525 22.0074 1.61101 20.4867 3.4283C18.813 5.3733 17.8278 7.77999 18.0383 10.4912C20.5345 10.6877 22.8108 9.37135 24.6854 7.12183Z" fill="white"/>
</svg>
