<svg width="42" height="40" viewBox="0 0 42 40" fill="none" xmlns="http://www.w3.org/2000/svg">
<path d="M15.0938 4H26.9062C27.2672 4 27.5625 4.3 27.5625 4.66667V8H14.4375V4.66667C14.4375 4.3 14.7328 4 15.0938 4ZM10.5 4.66667V8H5.25C2.3543 8 0 10.3917 0 13.3333V21.3333H15.75H26.25H42V13.3333C42 10.3917 39.6457 8 36.75 8H31.5V4.66667C31.5 2.09167 29.441 0 26.9062 0H15.0938C12.559 0 10.5 2.09167 10.5 4.66667ZM42 24H26.25V26.6667C26.25 28.1417 25.077 29.3333 23.625 29.3333H18.375C16.923 29.3333 15.75 28.1417 15.75 26.6667V24H0V34.6667C0 37.6083 2.3543 40 5.25 40H36.75C39.6457 40 42 37.6083 42 34.6667V24Z" fill="white"/>
</svg>
