<svg width="8" height="10" viewBox="0 0 8 10" fill="none" xmlns="http://www.w3.org/2000/svg">
<path d="M3.50625 9.7753C2.4375 8.51814 0 5.47119 0 3.75973C0 1.68405 1.79167 0 4 0C6.20833 0 8 1.68405 8 3.75973C8 5.47119 5.5625 8.51814 4.49375 9.7753C4.2375 10.0749 3.7625 10.0749 3.50625 9.7753ZM4 5.01297C4.73542 5.01297 5.33333 4.45097 5.33333 3.75973C5.33333 3.06849 4.73542 2.50649 4 2.50649C3.26458 2.50649 2.66667 3.06849 2.66667 3.75973C2.66667 4.45097 3.26458 5.01297 4 5.01297Z" fill="#1C1C1C"/>
</svg>
