<svg width="22" height="22" viewBox="0 0 22 22" fill="none" xmlns="http://www.w3.org/2000/svg">
<g clip-path="url(#clip0_1_1283)">
<path d="M10.4586 0.111707L0.833603 4.23671C0.232041 4.49452 -0.103115 5.13905 0.0300878 5.77499C0.163291 6.41092 0.721885 6.87499 1.37501 6.87499V7.21874C1.37501 7.79022 1.83478 8.24999 2.40626 8.24999H19.5938C20.1652 8.24999 20.625 7.79022 20.625 7.21874V6.87499C21.2781 6.87499 21.841 6.41522 21.9699 5.77499C22.0988 5.13475 21.7637 4.49022 21.1664 4.23671L11.5414 0.111707C11.1934 -0.0343872 10.8024 -0.0343872 10.4586 0.111707ZM5.50001 9.62499H2.75001V18.0598C2.72423 18.0726 2.69845 18.0898 2.67267 18.107L0.610166 19.482C0.107432 19.8172 -0.120303 20.4445 0.055869 21.0246C0.232041 21.6047 0.76915 22 1.37501 22H20.625C21.2309 22 21.7637 21.6047 21.9399 21.0246C22.116 20.4445 21.8926 19.8172 21.3856 19.482L19.3231 18.107C19.2973 18.0898 19.2715 18.0769 19.2457 18.0598V9.62499H16.5V17.875H14.7813V9.62499H12.0313V17.875H9.96876V9.62499H7.21876V17.875H5.50001V9.62499ZM11 5.49999C10.2395 5.49999 9.62501 4.88553 9.62501 4.12499C9.62501 3.36444 10.2395 2.74999 11 2.74999C11.7606 2.74999 12.375 3.36444 12.375 4.12499C12.375 4.88553 11.7606 5.49999 11 5.49999Z" fill="black"/>
</g>
<defs>
<clipPath id="clip0_1_1283">
<rect width="22" height="22" fill="white"/>
</clipPath>
</defs>
</svg>
