<svg width="24" height="22" viewBox="0 0 24 22" fill="none" xmlns="http://www.w3.org/2000/svg">
<path d="M23.9937 10.9764C23.9937 11.7497 23.3687 12.3554 22.6603 12.3554H21.3268L21.356 19.2376C21.3643 20.7627 20.1684 22 18.6891 22H5.33795C3.867 22 2.67106 20.767 2.67106 19.2505V12.3554H1.33345C0.583383 12.3554 0 11.754 0 10.9764C0 10.5897 0.125011 10.246 0.416702 9.94532L11.1009 0.343683C11.3926 0.0429604 11.726 0 12.0177 0C12.3094 0 12.6427 0.0859207 12.8928 0.300723L23.5353 9.94532C23.8687 10.246 24.0354 10.5897 23.9937 10.9764ZM14.6679 9.62312C14.6679 8.10662 13.472 6.87366 12.001 6.87366C10.5301 6.87366 9.33413 8.10662 9.33413 9.62312C9.33413 11.1396 10.5301 12.3726 12.001 12.3726C13.472 12.3726 14.6679 11.1396 14.6679 9.62312ZM10.6676 13.7473C8.82575 13.7473 7.33396 15.2853 7.33396 17.1841C7.33396 17.5622 7.63398 17.8715 8.00068 17.8715H16.0014C16.3681 17.8715 16.6681 17.5622 16.6681 17.1841C16.6681 15.2853 15.1763 13.7473 13.3345 13.7473H10.6676Z" fill="#1C1C1C"/>
</svg>
