<svg width="16" height="16" viewBox="0 0 16 16" fill="none" xmlns="http://www.w3.org/2000/svg">
<path d="M13.0006 6.49905C13.0006 7.93321 12.535 9.25802 11.7506 10.3329L15.707 14.2917C16.0977 14.6822 16.0977 15.3165 15.707 15.7071C15.3164 16.0976 14.682 16.0976 14.2913 15.7071L10.3349 11.7483C9.25983 12.5357 7.93476 12.9981 6.50032 12.9981C2.90952 12.9981 0 10.0891 0 6.49905C0 2.90895 2.90952 0 6.50032 0C10.0911 0 13.0006 2.90895 13.0006 6.49905ZM6.50032 10.9984C8.98481 10.9984 11.0005 8.98306 11.0005 6.49905C11.0005 4.01504 8.98481 1.99971 6.50032 1.99971C4.01582 1.99971 2.0001 4.01504 2.0001 6.49905C2.0001 8.98306 4.01582 10.9984 6.50032 10.9984Z" fill="#D3D3D3"/>
</svg>
