<svg width="3" height="3" viewBox="0 0 3 3" fill="none" xmlns="http://www.w3.org/2000/svg">
<path d="M2.91121 0.512338C3.02835 0.395205 3.02835 0.204982 2.91121 0.0878494C2.79408 -0.0292832 2.60386 -0.0292832 2.48672 0.0878494L1.5 1.07551L0.512338 0.0887865C0.395205 -0.0283461 0.204982 -0.0283461 0.0878494 0.0887865C-0.0292832 0.205919 -0.0292832 0.396142 0.0878494 0.513275L1.07551 1.5L0.0887865 2.48766C-0.0283461 2.60479 -0.0283461 2.79502 0.0887865 2.91215C0.205919 3.02928 0.396142 3.02928 0.513275 2.91215L1.5 1.92449L2.48766 2.91121C2.60479 3.02835 2.79502 3.02835 2.91215 2.91121C3.02928 2.79408 3.02928 2.60386 2.91215 2.48672L1.92449 1.5L2.91121 0.512338Z" fill="white"/>
</svg>
