<svg width="30" height="40" viewBox="0 0 30 40" fill="none" xmlns="http://www.w3.org/2000/svg">
<path d="M3.75 0C1.67969 0 0 1.67969 0 3.75V36.25C0 38.3203 1.67969 40 3.75 40H11.25V33.75C11.25 31.6797 12.9297 30 15 30C17.0703 30 18.75 31.6797 18.75 33.75V40H26.25C28.3203 40 30 38.3203 30 36.25V3.75C30 1.67969 28.3203 0 26.25 0H3.75ZM5 18.75C5 18.0625 5.5625 17.5 6.25 17.5H8.75C9.4375 17.5 10 18.0625 10 18.75V21.25C10 21.9375 9.4375 22.5 8.75 22.5H6.25C5.5625 22.5 5 21.9375 5 21.25V18.75ZM13.75 17.5H16.25C16.9375 17.5 17.5 18.0625 17.5 18.75V21.25C17.5 21.9375 16.9375 22.5 16.25 22.5H13.75C13.0625 22.5 12.5 21.9375 12.5 21.25V18.75C12.5 18.0625 13.0625 17.5 13.75 17.5ZM20 18.75C20 18.0625 20.5625 17.5 21.25 17.5H23.75C24.4375 17.5 25 18.0625 25 18.75V21.25C25 21.9375 24.4375 22.5 23.75 22.5H21.25C20.5625 22.5 20 21.9375 20 21.25V18.75ZM6.25 7.5H8.75C9.4375 7.5 10 8.0625 10 8.75V11.25C10 11.9375 9.4375 12.5 8.75 12.5H6.25C5.5625 12.5 5 11.9375 5 11.25V8.75C5 8.0625 5.5625 7.5 6.25 7.5ZM12.5 8.75C12.5 8.0625 13.0625 7.5 13.75 7.5H16.25C16.9375 7.5 17.5 8.0625 17.5 8.75V11.25C17.5 11.9375 16.9375 12.5 16.25 12.5H13.75C13.0625 12.5 12.5 11.9375 12.5 11.25V8.75ZM21.25 7.5H23.75C24.4375 7.5 25 8.0625 25 8.75V11.25C25 11.9375 24.4375 12.5 23.75 12.5H21.25C20.5625 12.5 20 11.9375 20 11.25V8.75C20 8.0625 20.5625 7.5 21.25 7.5Z" fill="white"/>
</svg>
