<svg width="13" height="11" viewBox="0 0 13 11" fill="none" xmlns="http://www.w3.org/2000/svg">
<path d="M2.925 3.4375C2.02719 3.4375 1.3 2.66836 1.3 1.71875C1.3 0.769141 2.02719 0 2.925 0C3.82281 0 4.55 0.769141 4.55 1.71875C4.55 2.66836 3.82281 3.4375 2.925 3.4375ZM10.4 3.4375C9.50219 3.4375 8.775 2.66836 8.775 1.71875C8.775 0.769141 9.50219 0 10.4 0C11.2978 0 12.025 0.769141 12.025 1.71875C12.025 2.66836 11.2978 3.4375 10.4 3.4375ZM0 6.41738C0 5.15195 0.970937 4.125 2.16734 4.125H3.03469C3.35766 4.125 3.66437 4.2002 3.94062 4.3334C3.91422 4.48809 3.90203 4.64922 3.90203 4.8125C3.90203 5.6332 4.24328 6.37012 4.78156 6.875C4.7775 6.875 4.77344 6.875 4.76734 6.875H0.432656C0.195 6.875 0 6.66875 0 6.41738ZM8.23266 6.875C8.22859 6.875 8.22453 6.875 8.21844 6.875C8.75875 6.37012 9.09797 5.6332 9.09797 4.8125C9.09797 4.64922 9.08375 4.49023 9.05937 4.3334C9.33562 4.19805 9.64234 4.125 9.96531 4.125H10.8327C12.0291 4.125 13 5.15195 13 6.41738C13 6.6709 12.805 6.875 12.5673 6.875H8.23266ZM8.45 4.8125C8.45 5.95117 7.57656 6.875 6.5 6.875C5.42344 6.875 4.55 5.95117 4.55 4.8125C4.55 3.67383 5.42344 2.75 6.5 2.75C7.57656 2.75 8.45 3.67383 8.45 4.8125ZM2.6 10.4264C2.6 8.84512 3.81266 7.5625 5.30766 7.5625H7.69234C9.18734 7.5625 10.4 8.84512 10.4 10.4264C10.4 10.7422 10.1583 11 9.85766 11H3.14234C2.84375 11 2.6 10.7443 2.6 10.4264Z" fill="#1C1C1C"/>
</svg>
