<svg width="10" height="11" viewBox="0 0 10 11" fill="none" xmlns="http://www.w3.org/2000/svg">
<path d="M8.186 1.64065C7.63117 1.10204 6.73071 1.10204 6.17588 1.64065L1.99193 5.70225C1.03462 6.63157 1.03462 8.13701 1.99193 9.06632C2.94924 9.99564 4.50003 9.99564 5.45734 9.06632L8.91365 5.71108C9.1615 5.47048 9.56625 5.47048 9.81411 5.71108C10.062 5.95169 10.062 6.3446 9.81411 6.58521L6.3578 9.94045C4.90251 11.3532 2.54676 11.3532 1.09147 9.94045C-0.363822 8.52772 -0.363822 6.24086 1.09147 4.82812L5.27543 0.766518C6.32824 -0.255506 8.03365 -0.255506 9.08646 0.766518C10.1393 1.78854 10.1393 3.44409 9.08646 4.46611L5.08442 8.35113C4.43409 8.98244 3.379 8.98244 2.72867 8.35113C2.07834 7.71981 2.07834 6.69558 2.72867 6.06427L6.00307 2.88562C6.25092 2.64501 6.65568 2.64501 6.90353 2.88562C7.15138 3.12622 7.15138 3.51914 6.90353 3.75975L3.62913 6.93839C3.47678 7.08629 3.47678 7.3291 3.62913 7.477C3.78148 7.62489 4.03161 7.62489 4.18396 7.477L8.186 3.59198C8.74083 3.05338 8.74083 2.17925 8.186 1.64065V1.64065Z" fill="#1C1C1C"/>
</svg>
