<svg width="12" height="12" viewBox="0 0 12 12" fill="none" xmlns="http://www.w3.org/2000/svg">
<path d="M9.62859 5.42071L9.89377 5.1556L9.09822 4.36026L7.64088 2.90332L6.84532 2.10799L6.58014 2.3731L6.04977 2.90332L1.375 7.57679C1.13094 7.82079 0.952581 8.12344 0.854017 8.45424L0.0232605 11.279C-0.0354087 11.476 0.018567 11.6895 0.166413 11.835C0.31426 11.9805 0.525469 12.0344 0.722598 11.9781L3.54576 11.1476C3.87666 11.049 4.17939 10.8707 4.42345 10.6267L9.09822 5.95328L9.62859 5.42071ZM3.75462 9.37157L3.54107 9.90414C3.4472 9.97687 3.34159 10.0308 3.22895 10.066L1.39377 10.6056L1.93353 8.77331C1.96639 8.65835 2.02271 8.55278 2.09546 8.46128L2.62818 8.24778V8.99854C2.62818 9.205 2.79714 9.37392 3.00366 9.37392H3.75462V9.37157ZM8.51153 0.439897L8.17359 0.780085L7.64322 1.31031L7.37569 1.57542L8.17125 2.37075L9.62859 3.82769L10.4241 4.62303L10.6893 4.35792L11.2197 3.82769L11.56 3.48751C12.1467 2.90098 12.1467 1.9508 11.56 1.36427L10.6377 0.439897C10.051 -0.146632 9.10057 -0.146632 8.51387 0.439897H8.51153ZM7.39916 4.38138L4.01981 7.75979C3.87431 7.90525 3.63494 7.90525 3.48944 7.75979C3.34394 7.61433 3.34394 7.37503 3.48944 7.22957L6.86879 3.85116C7.01429 3.7057 7.25366 3.7057 7.39916 3.85116C7.54466 3.99661 7.54466 4.23592 7.39916 4.38138Z" fill="#C6C6C6"/>
</svg>
