<svg width="14" height="11" viewBox="0 0 14 11" fill="none" xmlns="http://www.w3.org/2000/svg">
<path d="M1.75 1.375C1.50937 1.375 1.3125 1.58125 1.3125 1.83333V2.46641L6.0293 6.52266C6.59531 7.00964 7.40742 7.00964 7.97344 6.52266L12.6875 2.46641V1.83333C12.6875 1.58125 12.4906 1.375 12.25 1.375H1.75ZM1.3125 4.24531V9.16667C1.3125 9.41875 1.50937 9.625 1.75 9.625H12.25C12.4906 9.625 12.6875 9.41875 12.6875 9.16667V4.24531L8.80469 7.58542C7.75469 8.48776 6.24258 8.48776 5.19531 7.58542L1.3125 4.24531ZM0 1.83333C0 0.822135 0.784766 0 1.75 0H12.25C13.2152 0 14 0.822135 14 1.83333V9.16667C14 10.1779 13.2152 11 12.25 11H1.75C0.784766 11 0 10.1779 0 9.16667V1.83333Z" fill="#C6C6C6"/>
</svg>
