<svg width="10" height="16" viewBox="0 0 10 16" fill="none" xmlns="http://www.w3.org/2000/svg">
<path d="M4.41169 14.7576C4.73708 15.0924 5.26552 15.0924 5.59091 14.7576L9.75595 10.4729C10.0813 10.1381 10.0813 9.59449 9.75595 9.25974C9.48124 8.97724 9.5 9.00945 8.5 9.00881C7.5 9.00817 5 9.00868 5 9.00868L1.5 9.00923C1 9.00781 0.569439 8.92767 0.244045 9.26242C-0.0813484 9.59717 -0.0813484 10.1408 0.244045 10.4755L4.40908 14.7603L4.41169 14.7576Z" fill="#C6C6C6"/>
<path d="M4.41169 0.251044C4.73708 -0.0837024 5.26552 -0.0837024 5.59091 0.251044L9.75595 4.5358C10.0813 4.87055 10.0813 5.41418 9.75595 5.74892C9.48124 6.03143 9.5 5.99922 8.5 5.99986C7.5 6.0005 5 5.99998 5 5.99998L1.5 5.99944C1 6.00085 0.569439 6.08099 0.244045 5.74625C-0.0813484 5.4115 -0.0813484 4.86787 0.244045 4.53312L4.40908 0.248366L4.41169 0.251044Z" fill="#C6C6C6"/>
</svg>
