<svg width="12" height="13" viewBox="0 0 12 13" fill="none" xmlns="http://www.w3.org/2000/svg">
<path d="M9.8232 1.93895C9.15741 1.30241 8.07686 1.30241 7.41106 1.93895L2.39031 6.73903C1.24154 7.8373 1.24154 9.61647 2.39031 10.7147C3.53908 11.813 5.40003 11.813 6.5488 10.7147L10.6964 6.74946C10.9938 6.46511 11.4795 6.46511 11.7769 6.74946C12.0744 7.03381 12.0744 7.49817 11.7769 7.78252L7.62936 11.7478C5.88301 13.4174 3.05611 13.4174 1.30976 11.7478C-0.436587 10.0782 -0.436587 7.37556 1.30976 5.70597L6.33051 0.905885C7.59388 -0.301962 9.64038 -0.301962 10.9038 0.905885C12.1671 2.11373 12.1671 4.07029 10.9038 5.27813L6.1013 9.86951C5.3209 10.6156 4.0548 10.6156 3.2744 9.86951C2.494 9.12341 2.494 7.91296 3.2744 7.16686L7.20368 3.41027C7.50111 3.12592 7.98681 3.12592 8.28424 3.41027C8.58166 3.69463 8.58166 4.15898 8.28424 4.44334L4.35495 8.19992C4.17213 8.37471 4.17213 8.66167 4.35495 8.83645C4.53778 9.01124 4.83793 9.01124 5.02075 8.83645L9.8232 4.24507C10.489 3.60854 10.489 2.57548 9.8232 1.93895V1.93895Z" fill="#C6C6C6"/>
</svg>
