<svg width="15" height="10" viewBox="0 0 15 10" fill="none" xmlns="http://www.w3.org/2000/svg">
<path d="M8.92235 4.37844C8.96582 4.60465 8.99685 4.83087 8.99685 5.1243C8.99685 7.68596 7.25205 9.50172 4.62557 9.50172C2.11085 9.50172 0.0742188 7.49644 0.0742188 5.02039C0.0742188 2.54434 2.11085 0.539062 4.62557 0.539062C5.855 0.539062 6.8795 0.979236 7.67428 1.71289L6.43864 2.8806C6.10333 2.56269 5.51348 2.18976 4.62557 2.18976C3.07327 2.18976 1.80658 3.45529 1.80658 5.02039C1.80658 6.58549 3.07327 7.85103 4.62557 7.85103C6.42622 7.85103 7.10304 6.57326 7.20858 5.91908H4.62557V4.37842H8.92235V4.37844ZM13.3174 4.52868V3.22786H11.9899V4.52868H10.6687V5.83576H11.9899V7.13658H13.3174V5.83576H14.6385V4.52868H13.3174Z" fill="#13AB4D"/>
</svg>
