<svg width="10" height="10" viewBox="0 0 10 10" fill="none" xmlns="http://www.w3.org/2000/svg">
<path d="M4.73599 2.72272C3.46432 2.72272 2.43859 3.74868 2.43859 5.02063C2.43859 6.29259 3.46432 7.31855 4.73599 7.31855C6.00766 7.31855 7.03339 6.29259 7.03339 5.02063C7.03339 3.74868 6.00766 2.72272 4.73599 2.72272ZM4.73599 6.51458C3.9142 6.51458 3.24238 5.8446 3.24238 5.02063C3.24238 4.19667 3.91221 3.52669 4.73599 3.52669C5.55977 3.52669 6.2296 4.19667 6.2296 5.02063C6.2296 5.8446 5.55778 6.51458 4.73599 6.51458ZM7.66322 2.62873C7.66322 2.92671 7.42329 3.16471 7.12737 3.16471C6.82944 3.16471 6.5915 2.92472 6.5915 2.62873C6.5915 2.33274 6.83144 2.09275 7.12737 2.09275C7.42329 2.09275 7.66322 2.33274 7.66322 2.62873ZM9.18483 3.17271C9.15084 2.45473 8.98688 1.81876 8.46102 1.29478C7.93715 0.770798 7.30132 0.606804 6.58351 0.570805C5.8437 0.528807 3.62628 0.528807 2.88647 0.570805C2.17066 0.604804 1.53483 0.768798 1.00896 1.29278C0.483102 1.81676 0.321144 2.45273 0.285154 3.17071C0.243165 3.91068 0.243165 6.12859 0.285154 6.86856C0.319145 7.58654 0.483102 8.22251 1.00896 8.74649C1.53483 9.27047 2.16866 9.43446 2.88647 9.47046C3.62628 9.51246 5.8437 9.51246 6.58351 9.47046C7.30132 9.43646 7.93715 9.27247 8.46102 8.74649C8.98488 8.22251 9.14884 7.58654 9.18483 6.86856C9.22682 6.12859 9.22682 3.91268 9.18483 3.17271ZM8.22908 7.66253C8.07312 8.05452 7.7712 8.35651 7.3773 8.5145C6.78745 8.74849 5.38782 8.69449 4.73599 8.69449C4.08416 8.69449 2.68253 8.74649 2.09468 8.5145C1.70278 8.35851 1.40086 8.05652 1.2429 7.66253C1.00896 7.07256 1.06295 5.67261 1.06295 5.02063C1.06295 4.36866 1.01096 2.96671 1.2429 2.37874C1.39886 1.98675 1.70078 1.68476 2.09468 1.52677C2.68453 1.29278 4.08416 1.34678 4.73599 1.34678C5.38782 1.34678 6.78945 1.29478 7.3773 1.52677C7.7692 1.68276 8.07112 1.98475 8.22908 2.37874C8.46302 2.96871 8.40903 4.36866 8.40903 5.02063C8.40903 5.67261 8.46302 7.07456 8.22908 7.66253Z" fill="#13AB4D"/>
</svg>
