<svg width="14" height="12" viewBox="0 0 14 12" fill="none" xmlns="http://www.w3.org/2000/svg">
<path d="M0.677419 0C0.302016 0 0 0.308654 0 0.692308V2.07692C0 2.46058 0.302016 2.76923 0.677419 2.76923H2.03226C2.40766 2.76923 2.70968 2.46058 2.70968 2.07692V0.692308C2.70968 0.308654 2.40766 0 2.03226 0H0.677419ZM4.96774 0.461538C4.46815 0.461538 4.06452 0.874038 4.06452 1.38462C4.06452 1.89519 4.46815 2.30769 4.96774 2.30769H13.0968C13.5964 2.30769 14 1.89519 14 1.38462C14 0.874038 13.5964 0.461538 13.0968 0.461538H4.96774ZM4.96774 5.07692C4.46815 5.07692 4.06452 5.48942 4.06452 6C4.06452 6.51058 4.46815 6.92308 4.96774 6.92308H13.0968C13.5964 6.92308 14 6.51058 14 6C14 5.48942 13.5964 5.07692 13.0968 5.07692H4.96774ZM4.96774 9.69231C4.46815 9.69231 4.06452 10.1048 4.06452 10.6154C4.06452 11.126 4.46815 11.5385 4.96774 11.5385H13.0968C13.5964 11.5385 14 11.126 14 10.6154C14 10.1048 13.5964 9.69231 13.0968 9.69231H4.96774ZM0 5.30769V6.69231C0 7.07596 0.302016 7.38462 0.677419 7.38462H2.03226C2.40766 7.38462 2.70968 7.07596 2.70968 6.69231V5.30769C2.70968 4.92404 2.40766 4.61538 2.03226 4.61538H0.677419C0.302016 4.61538 0 4.92404 0 5.30769ZM0.677419 9.23077C0.302016 9.23077 0 9.53942 0 9.92308V11.3077C0 11.6913 0.302016 12 0.677419 12H2.03226C2.40766 12 2.70968 11.6913 2.70968 11.3077V9.92308C2.70968 9.53942 2.40766 9.23077 2.03226 9.23077H0.677419Z" fill="#898989"/>
</svg>
