<svg width="14" height="10" viewBox="0 0 14 10" fill="none" xmlns="http://www.w3.org/2000/svg">
<path d="M1.3125 0C0.587891 0 0 0.559896 0 1.25C0 1.64323 0.194141 2.01302 0.525 2.25L6.475 6.5C6.78672 6.72135 7.21328 6.72135 7.525 6.5L13.475 2.25C13.8059 2.01302 14 1.64323 14 1.25C14 0.559896 13.4121 0 12.6875 0H1.3125ZM0 2.91667V8.33333C0 9.2526 0.784766 10 1.75 10H12.25C13.2152 10 14 9.2526 14 8.33333V2.91667L8.05 7.16667C7.42656 7.61198 6.57344 7.61198 5.95 7.16667L0 2.91667Z" fill="#898989"/>
</svg>
