<svg width="10" height="14" viewBox="0 0 10 14" fill="none" xmlns="http://www.w3.org/2000/svg">
<path d="M5 0C3.49432 0 2.27273 1.17578 2.27273 2.625V7C2.27273 8.44922 3.49432 9.625 5 9.625C6.50568 9.625 7.72727 8.44922 7.72727 7V2.625C7.72727 1.17578 6.50568 0 5 0ZM1.36364 5.90625C1.36364 5.54258 1.05966 5.25 0.681818 5.25C0.303977 5.25 0 5.54258 0 5.90625V7C0 9.43633 1.88068 11.4488 4.31818 11.7687V12.6875H2.95455C2.5767 12.6875 2.27273 12.9801 2.27273 13.3438C2.27273 13.7074 2.5767 14 2.95455 14H5H7.04545C7.4233 14 7.72727 13.7074 7.72727 13.3438C7.72727 12.9801 7.4233 12.6875 7.04545 12.6875H5.68182V11.7687C8.11932 11.4488 10 9.43633 10 7V5.90625C10 5.54258 9.69602 5.25 9.31818 5.25C8.94034 5.25 8.63636 5.54258 8.63636 5.90625V7C8.63636 8.9332 7.00852 10.5 5 10.5C2.99148 10.5 1.36364 8.9332 1.36364 7V5.90625Z" fill="#C6C6C6"/>
</svg>
