<svg width="16" height="19" viewBox="0 0 16 19" fill="none" xmlns="http://www.w3.org/2000/svg">
<path d="M7.99921 0.0541382C7.36708 0.0541382 6.85637 0.558305 6.85637 1.18234V1.85927C4.24926 2.38106 2.285 4.65863 2.285 7.38747V8.05029C2.285 9.70734 1.66715 11.308 0.552881 12.549L0.288598 12.8416C-0.0113978 13.173 -0.0828254 13.649 0.099315 14.0545C0.281456 14.4599 0.692164 14.7208 1.14216 14.7208H14.8563C15.3063 14.7208 15.7134 14.4599 15.8991 14.0545C16.0848 13.649 16.0098 13.173 15.7098 12.8416L15.4455 12.549C14.3313 11.308 13.7134 9.71087 13.7134 8.05029V7.38747C13.7134 4.65863 11.7492 2.38106 9.14205 1.85927V1.18234C9.14205 0.558305 8.63135 0.0541382 7.99921 0.0541382ZM9.61705 17.4461C10.0456 17.023 10.2849 16.4484 10.2849 15.849H7.99921H5.71353C5.71353 16.4484 5.95281 17.023 6.38138 17.4461C6.80994 17.8692 7.39208 18.1054 7.99921 18.1054C8.60635 18.1054 9.18848 17.8692 9.61705 17.4461Z" fill="#1C1C1C"/>
</svg>
