<svg width="14" height="16" viewBox="0 0 14 16" fill="none" xmlns="http://www.w3.org/2000/svg">
<path d="M6.99931 0C6.44619 0 5.99932 0.446875 5.99932 1V1.6C3.7181 2.0625 1.99938 4.08125 1.99938 6.5V7.0875C1.99938 8.55625 1.45876 9.975 0.48377 11.075L0.252524 11.3344C-0.00997305 11.6281 -0.0724722 12.05 0.0869007 12.4094C0.246274 12.7688 0.605644 13 0.999389 13H12.9992C13.393 13 13.7492 12.7688 13.9117 12.4094C14.0742 12.05 14.0086 11.6281 13.7461 11.3344L13.5149 11.075C12.5399 9.975 11.9992 8.55938 11.9992 7.0875V6.5C11.9992 4.08125 10.2805 2.0625 7.9993 1.6V1C7.9993 0.446875 7.55243 0 6.99931 0ZM8.41492 15.4156C8.78991 15.0406 8.99928 14.5312 8.99928 14H6.99931H4.99934C4.99934 14.5312 5.20871 15.0406 5.5837 15.4156C5.9587 15.7906 6.46807 16 6.99931 16C7.53055 16 8.03992 15.7906 8.41492 15.4156Z" fill="#585858"/>
</svg>
