<svg width="13" height="14" viewBox="0 0 13 14" fill="none" xmlns="http://www.w3.org/2000/svg">
<path d="M12.6 0H0V9.33333L6.51724 14L12.6 9.33333V0Z" fill="#15BFF4"/>
<rect x="3.90527" y="7.76685" width="4.66667" height="0.7" fill="white"/>
<path d="M4.1216 7.35203H8.4785C8.60766 7.35203 8.72232 7.26936 8.76313 7.14682L9.57911 4.69685C9.66242 4.44672 9.40575 4.21848 9.16707 4.33045L7.83093 4.95729C7.69325 5.02188 7.52903 4.97323 7.44873 4.84409L6.52415 3.35692C6.4148 3.18103 6.16435 3.16622 6.03504 3.328L4.80141 4.87131C4.70959 4.98618 4.54804 5.01756 4.4199 4.94542L3.47751 4.41489C3.23841 4.28028 2.95901 4.51077 3.04571 4.77111L3.83697 7.14682C3.87778 7.26936 3.99244 7.35203 4.1216 7.35203Z" fill="white"/>
</svg>
