<svg width="10" height="13" viewBox="0 0 10 13" fill="none" xmlns="http://www.w3.org/2000/svg">
<path d="M5.61719 12.7079C6.95312 11.0736 10 7.11255 10 4.88765C10 2.18926 7.76042 0 5 0C2.23958 0 0 2.18926 0 4.88765C0 7.11255 3.04688 11.0736 4.38281 12.7079C4.70312 13.0974 5.29688 13.0974 5.61719 12.7079ZM5 6.51686C4.08073 6.51686 3.33333 5.78626 3.33333 4.88765C3.33333 3.98903 4.08073 3.25843 5 3.25843C5.91927 3.25843 6.66667 3.98903 6.66667 4.88765C6.66667 5.78626 5.91927 6.51686 5 6.51686Z" fill="#13AB4D"/>
</svg>
