<svg width="17" height="12" viewBox="0 0 17 12" fill="none" xmlns="http://www.w3.org/2000/svg">
<path d="M1.88889 0C0.847049 0 0 0.896875 0 2V10C0 11.1031 0.847049 12 1.88889 12H15.1111C16.153 12 17 11.1031 17 10V2C17 0.896875 16.153 0 15.1111 0H1.88889ZM2.36111 2H3.30556C3.56528 2 3.77778 2.225 3.77778 2.5V3.5C3.77778 3.775 3.56528 4 3.30556 4H2.36111C2.10139 4 1.88889 3.775 1.88889 3.5V2.5C1.88889 2.225 2.10139 2 2.36111 2ZM1.88889 5.5C1.88889 5.225 2.10139 5 2.36111 5H3.30556C3.56528 5 3.77778 5.225 3.77778 5.5V6.5C3.77778 6.775 3.56528 7 3.30556 7H2.36111C2.10139 7 1.88889 6.775 1.88889 6.5V5.5ZM2.36111 8H3.30556C3.56528 8 3.77778 8.225 3.77778 8.5V9.5C3.77778 9.775 3.56528 10 3.30556 10H2.36111C2.10139 10 1.88889 9.775 1.88889 9.5V8.5C1.88889 8.225 2.10139 8 2.36111 8ZM4.72222 2.5C4.72222 2.225 4.93472 2 5.19444 2H6.13889C6.39861 2 6.61111 2.225 6.61111 2.5V3.5C6.61111 3.775 6.39861 4 6.13889 4H5.19444C4.93472 4 4.72222 3.775 4.72222 3.5V2.5ZM5.19444 5H6.13889C6.39861 5 6.61111 5.225 6.61111 5.5V6.5C6.61111 6.775 6.39861 7 6.13889 7H5.19444C4.93472 7 4.72222 6.775 4.72222 6.5V5.5C4.72222 5.225 4.93472 5 5.19444 5ZM4.72222 8.5C4.72222 8.225 4.93472 8 5.19444 8H11.8056C12.0653 8 12.2778 8.225 12.2778 8.5V9.5C12.2778 9.775 12.0653 10 11.8056 10H5.19444C4.93472 10 4.72222 9.775 4.72222 9.5V8.5ZM8.02778 2H8.97222C9.23194 2 9.44444 2.225 9.44444 2.5V3.5C9.44444 3.775 9.23194 4 8.97222 4H8.02778C7.76806 4 7.55556 3.775 7.55556 3.5V2.5C7.55556 2.225 7.76806 2 8.02778 2ZM7.55556 5.5C7.55556 5.225 7.76806 5 8.02778 5H8.97222C9.23194 5 9.44444 5.225 9.44444 5.5V6.5C9.44444 6.775 9.23194 7 8.97222 7H8.02778C7.76806 7 7.55556 6.775 7.55556 6.5V5.5ZM10.8611 2H11.8056C12.0653 2 12.2778 2.225 12.2778 2.5V3.5C12.2778 3.775 12.0653 4 11.8056 4H10.8611C10.6014 4 10.3889 3.775 10.3889 3.5V2.5C10.3889 2.225 10.6014 2 10.8611 2ZM10.3889 5.5C10.3889 5.225 10.6014 5 10.8611 5H11.8056C12.0653 5 12.2778 5.225 12.2778 5.5V6.5C12.2778 6.775 12.0653 7 11.8056 7H10.8611C10.6014 7 10.3889 6.775 10.3889 6.5V5.5ZM13.6944 2H14.6389C14.8986 2 15.1111 2.225 15.1111 2.5V3.5C15.1111 3.775 14.8986 4 14.6389 4H13.6944C13.4347 4 13.2222 3.775 13.2222 3.5V2.5C13.2222 2.225 13.4347 2 13.6944 2ZM13.2222 5.5C13.2222 5.225 13.4347 5 13.6944 5H14.6389C14.8986 5 15.1111 5.225 15.1111 5.5V6.5C15.1111 6.775 14.8986 7 14.6389 7H13.6944C13.4347 7 13.2222 6.775 13.2222 6.5V5.5ZM13.6944 8H14.6389C14.8986 8 15.1111 8.225 15.1111 8.5V9.5C15.1111 9.775 14.8986 10 14.6389 10H13.6944C13.4347 10 13.2222 9.775 13.2222 9.5V8.5C13.2222 8.225 13.4347 8 13.6944 8Z" fill="#C6C6C6"/>
</svg>
