<svg width="12" height="12" viewBox="0 0 12 12" fill="none" xmlns="http://www.w3.org/2000/svg">
<path d="M11.6746 0.131312C11.9114 0.295341 12.0356 0.578876 11.9911 0.862411L10.491 10.6104C10.4559 10.8377 10.3176 11.0369 10.116 11.1493C9.91446 11.2618 9.67305 11.2759 9.45976 11.1868L6.6566 10.0222L5.0511 11.7586C4.84251 11.9859 4.51438 12.0609 4.22609 11.9484C3.9378 11.8359 3.7503 11.5571 3.7503 11.2478V9.28879C3.7503 9.19506 3.78546 9.10602 3.84874 9.03806L7.77693 4.75223C7.91287 4.6046 7.90818 4.37731 7.76755 4.23671C7.62692 4.09612 7.39958 4.08674 7.25192 4.22031L2.48466 8.45459L0.415094 7.41887C0.166653 7.29467 0.00727548 7.04629 0.000244118 6.76978C-0.00678724 6.49328 0.138527 6.23552 0.377594 6.09726L10.8778 0.0985067C11.1285 -0.0444324 11.4379 -0.0303728 11.6746 0.131312Z" fill="#295FCC"/>
</svg>
