<svg width="12" height="10" viewBox="0 0 12 10" fill="none" xmlns="http://www.w3.org/2000/svg">
<path d="M10.2744 2.77272C10.2815 2.87074 10.2815 2.96879 10.2815 3.06681C10.2815 6.05668 7.97118 9.50172 3.74859 9.50172C2.44768 9.50172 1.23921 9.13059 0.222656 8.48643C0.40749 8.50742 0.58519 8.51443 0.777135 8.51443C1.85054 8.51443 2.83866 8.15733 3.62773 7.54815C2.61829 7.52713 1.77235 6.87595 1.48089 5.97967C1.62308 6.00067 1.76524 6.01468 1.91454 6.01468C2.12069 6.01468 2.32685 5.98666 2.51878 5.93767C1.46669 5.72759 0.677596 4.81733 0.677596 3.718V3.69C0.98326 3.85805 1.33873 3.96308 1.71546 3.97707C1.097 3.57094 0.691819 2.87775 0.691819 2.09351C0.691819 1.67339 0.805538 1.28828 1.00459 0.952174C2.13489 2.32458 3.83388 3.22083 5.739 3.31888C5.70346 3.15083 5.68213 2.97579 5.68213 2.80074C5.68213 1.55435 6.70579 0.539062 7.97825 0.539062C8.63936 0.539062 9.23648 0.812143 9.65591 1.25327C10.1748 1.15525 10.6724 0.966184 11.1132 0.707114C10.9426 1.23228 10.58 1.67341 10.1038 1.95348C10.5658 1.90449 11.0137 1.77842 11.426 1.60339C11.1132 2.0515 10.7222 2.4506 10.2744 2.77272Z" fill="#13AB4D"/>
</svg>
