<svg width="14" height="14" viewBox="0 0 14 14" fill="none" xmlns="http://www.w3.org/2000/svg">
<path d="M7.875 2.98813V9.62479C7.875 10.1088 7.48398 10.4998 7 10.4998C6.51602 10.4998 6.125 10.1088 6.125 9.62479V2.98813L4.11797 4.99526C3.77617 5.33708 3.22109 5.33708 2.8793 4.99526C2.5375 4.65345 2.5375 4.09834 2.8793 3.75653L6.3793 0.25636C6.72109 -0.0854534 7.27617 -0.0854534 7.61797 0.25636L11.118 3.75653C11.4598 4.09834 11.4598 4.65345 11.118 4.99526C10.7762 5.33708 10.2211 5.33708 9.8793 4.99526L7.875 2.98813ZM1.75 9.62479H5.25C5.25 10.5901 6.03477 11.3749 7 11.3749C7.96523 11.3749 8.75 10.5901 8.75 9.62479H12.25C13.2152 9.62479 14 10.4096 14 11.3749V12.2499C14 13.2152 13.2152 14 12.25 14H1.75C0.784766 14 0 13.2152 0 12.2499V11.3749C0 10.4096 0.784766 9.62479 1.75 9.62479ZM11.8125 12.4687C12.1762 12.4687 12.4688 12.1761 12.4688 11.8124C12.4688 11.4487 12.1762 11.1561 11.8125 11.1561C11.4488 11.1561 11.1562 11.4487 11.1562 11.8124C11.1562 12.1761 11.4488 12.4687 11.8125 12.4687Z" fill="#B7B7B7"/>
</svg>
