<svg width="8" height="8" viewBox="0 0 8 8" fill="none" xmlns="http://www.w3.org/2000/svg">
<path d="M7.43907 4.02253C8.18698 3.19842 8.18698 1.86379 7.43907 1.03967C6.7772 0.310367 5.73409 0.215557 4.97295 0.815046L4.95177 0.831091C4.76115 0.981328 4.71746 1.27305 4.85381 1.48163C4.99015 1.69021 5.2549 1.73981 5.4442 1.58957L5.46538 1.57352C5.8903 1.2395 6.47142 1.29201 6.83941 1.69896C7.25639 2.15843 7.25639 2.90232 6.83941 3.36178L5.35418 5.00126C4.9372 5.46072 4.2621 5.46072 3.84512 5.00126C3.4758 4.59431 3.42815 3.95398 3.73128 3.48722L3.74584 3.46388C3.88219 3.25384 3.83718 2.96212 3.64789 2.81334C3.45859 2.66457 3.19252 2.7127 3.0575 2.92128L3.04294 2.94462C2.49756 3.78186 2.5836 4.93125 3.24547 5.66055C3.99338 6.48467 5.2046 6.48467 5.95251 5.66055L7.43907 4.02253ZM0.560933 3.68122C-0.186978 4.50533 -0.186978 5.83996 0.560933 6.66408C1.2228 7.39338 2.26591 7.48819 3.02705 6.8887L3.04823 6.87266C3.23885 6.72242 3.28254 6.4307 3.14619 6.22212C3.00985 6.01354 2.7451 5.96394 2.5558 6.11418L2.53462 6.13023C2.1097 6.46425 1.52858 6.41174 1.16059 6.00479C0.743609 5.54386 0.743609 4.79997 1.16059 4.34051L2.64582 2.70249C3.06279 2.24303 3.7379 2.24303 4.15488 2.70249C4.5242 3.10944 4.57185 3.74977 4.26872 4.21799L4.25416 4.24132C4.11781 4.45136 4.16282 4.74309 4.35211 4.89186C4.54141 5.04064 4.80748 4.99251 4.9425 4.78393L4.95706 4.76059C5.50244 3.92189 5.4164 2.7725 4.75453 2.0432C4.00662 1.21908 2.7954 1.21908 2.04749 2.0432L0.560933 3.68122Z" fill="#3B65F5"/>
</svg>
