<svg width="13" height="14" viewBox="0 0 13 14" fill="none" xmlns="http://www.w3.org/2000/svg">
<path d="M12.6 0H0V9.33333L6.51724 14L12.6 9.33333V0Z" fill="#15BFF4"/>
<rect x="3.90503" y="7.76648" width="4.66667" height="0.7" fill="white"/>
<path d="M4.12135 7.35166H8.47826C8.60741 7.35166 8.72207 7.269 8.76289 7.14646L9.57887 4.69648C9.66218 4.44635 9.4055 4.21812 9.16683 4.33009L7.83068 4.95692C7.69301 5.02151 7.52878 4.97287 7.44849 4.84372L6.5239 3.35655C6.41456 3.18067 6.1641 3.16586 6.03479 3.32763L4.80116 4.87094C4.70934 4.98581 4.5478 5.01719 4.41965 4.94505L3.47727 4.41452C3.23816 4.27991 2.95876 4.5104 3.04547 4.77074L3.83672 7.14646C3.87754 7.269 3.9922 7.35166 4.12135 7.35166Z" fill="white"/>
</svg>
